{
    "asset" : {
        "generator" : "Khronos glTF Blender I/O v1.6.16",
        "version" : "2.0"
    },
    "scene" : 0,
    "scenes" : [
        {
            "name" : "Scene",
            "nodes" : [
                0,
                1,
                2,
                3,
                4
            ]
        }
    ],
    "nodes" : [
        {
            "mesh" : 0,
            "name" : "Cylinder",
            "rotation" : [
                0.7088336944580078,
                0,
                0,
                0.705375611782074
            ],
            "scale" : [
                62.71067428588867,
                -261.3816833496094,
                62.71573257446289
            ],
            "translation" : [
                -13.381805419921875,
                -56.73530578613281,
                171.6285400390625
            ]
        },
        {
            "mesh" : 1,
            "name" : "Cylinder.001",
            "rotation" : [
                0.7088336944580078,
                0,
                0,
                0.705375611782074
            ],
            "scale" : [
                62.71067428588867,
                -261.3816833496094,
                62.71573257446289
            ],
            "translation" : [
                243.96432495117188,
                -56.73530578613281,
                173.36734008789062
            ]
        },
        {
            "mesh" : 2,
            "name" : "Cylinder.002",
            "rotation" : [
                0.7088336944580078,
                0,
                0,
                0.705375611782074
            ],
            "scale" : [
                62.71067428588867,
                -261.3816833496094,
                62.71573257446289
            ],
            "translation" : [
                506.5269470214844,
                -56.73530578613281,
                171.6285400390625
            ]
        },
        {
            "mesh" : 3,
            "name" : "Cylinder.003",
            "rotation" : [
                0.7088336944580078,
                0,
                0,
                0.705375611782074
            ],
            "scale" : [
                62.71067428588867,
                -261.3816833496094,
                62.71573257446289
            ],
            "translation" : [
                758.6566162109375,
                -56.73530578613281,
                168.15087890625
            ]
        },
        {
            "mesh" : 4,
            "name" : "Cylinder.004",
            "rotation" : [
                0.5045896768569946,
                -0.4954010844230652,
                0.497829794883728,
                0.502128005027771
            ],
            "scale" : [
                62.71233367919922,
                -296.9600830078125,
                62.71593475341797
            ],
            "translation" : [
                1003.8310546875,
                -56.73530578613281,
                -75.28470611572266
            ]
        }
    ],
    "meshes" : [
        {
            "name" : "Cylinder",
            "primitives" : [
                {
                    "attributes" : {
                        "POSITION" : 0
                    },
                    "indices" : 1
                }
            ]
        },
        {
            "name" : "Cylinder.001",
            "primitives" : [
                {
                    "attributes" : {
                        "POSITION" : 2
                    },
                    "indices" : 1
                }
            ]
        },
        {
            "name" : "Cylinder.002",
            "primitives" : [
                {
                    "attributes" : {
                        "POSITION" : 3
                    },
                    "indices" : 1
                }
            ]
        },
        {
            "name" : "Cylinder.003",
            "primitives" : [
                {
                    "attributes" : {
                        "POSITION" : 4
                    },
                    "indices" : 1
                }
            ]
        },
        {
            "name" : "Cylinder.004",
            "primitives" : [
                {
                    "attributes" : {
                        "POSITION" : 5
                    },
                    "indices" : 1
                }
            ]
        }
    ],
    "accessors" : [
        {
            "bufferView" : 0,
            "componentType" : 5126,
            "count" : 64,
            "max" : [
                1,
                1,
                1
            ],
            "min" : [
                -1,
                -1,
                -1
            ],
            "type" : "VEC3"
        },
        {
            "bufferView" : 1,
            "componentType" : 5123,
            "count" : 372,
            "type" : "SCALAR"
        },
        {
            "bufferView" : 2,
            "componentType" : 5126,
            "count" : 64,
            "max" : [
                1,
                1,
                1
            ],
            "min" : [
                -1,
                -1,
                -1
            ],
            "type" : "VEC3"
        },
        {
            "bufferView" : 3,
            "componentType" : 5126,
            "count" : 64,
            "max" : [
                1,
                1,
                1
            ],
            "min" : [
                -1,
                -1,
                -1
            ],
            "type" : "VEC3"
        },
        {
            "bufferView" : 4,
            "componentType" : 5126,
            "count" : 64,
            "max" : [
                1,
                1,
                1
            ],
            "min" : [
                -1,
                -1,
                -1
            ],
            "type" : "VEC3"
        },
        {
            "bufferView" : 5,
            "componentType" : 5126,
            "count" : 64,
            "max" : [
                1,
                1,
                1
            ],
            "min" : [
                -1,
                -1,
                -1
            ],
            "type" : "VEC3"
        }
    ],
    "bufferViews" : [
        {
            "buffer" : 0,
            "byteLength" : 768,
            "byteOffset" : 0
        },
        {
            "buffer" : 0,
            "byteLength" : 744,
            "byteOffset" : 768
        },
        {
            "buffer" : 0,
            "byteLength" : 768,
            "byteOffset" : 1512
        },
        {
            "buffer" : 0,
            "byteLength" : 768,
            "byteOffset" : 2280
        },
        {
            "buffer" : 0,
            "byteLength" : 768,
            "byteOffset" : 3048
        },
        {
            "buffer" : 0,
            "byteLength" : 768,
            "byteOffset" : 3816
        }
    ],
    "buffers" : [
        {
            "byteLength" : 4584,
            "uri" : "data:application/octet-stream;base64,"
        }
    ]
}
